PathFileType	4	(X/Y/Z)	C:/Users/beibeiliu/ov580/test_trc\sequence.11_training_dense_right.trc
DataRate	CameraRate	NumFrames	NumMarkers	Units	OrigDataRate	OrigDataStartFrame	OrigNumFrames
120	120	12	19	mm	120	1	100
Frame#	Time	ThumbCMC			ThumbMCP			ThumbIP			ThumbTip			IndexMCP			IndexPIP			IndexTip			MiddleMCP			MiddlePIP			MiddleTip			RingMCP			RingPIP			RingTip			PinkyMCP			PinkyPIP			PinkyTip			BackHand1			BackHand2			BackHand3	
		X0	Y0	Z0	X1	Y1	Z1	X2	Y2	Z2	X3	Y3	Z3	X4	Y4	Z4	X5	Y5	Z5	X6	Y6	Z6	X7	Y7	Z7	X8	Y8	Z8	X9	Y9	Z9	X10	Y10	Z10	X11	Y11	Z11	X12	Y12	Z12	X13	Y13	Z13	X14	Y14	Z14	X15	Y15	Z15	X16	Y16	Z16	X17	Y17	Z17	X18	Y18	Z18	
0	0	56.5422	33.0718	41.7705	36.783	16.5574	21.9912	31.3825	8.14673	-0.729315	28.3167	0.273606	-18.9658	54.1821	37.0991	-26.4869	49.6737	23.1122	-49.7809	42.7616	11.0331	-64.8111	78.0291	35.9794	-34.6499	72.0305	24.7166	-57.0508	73.1979	6.74459	-78.3778	95.1794	31.4078	-30.2501	93.8557	20.3517	-52.142	93.7529	5.99645	-70.5532	113.262	27.553	-19.1496	117.571	20.3451	-36.4592	122.101	14.7713	-51.953	98.0781	48.8327	13.2585	99.8571	55.8603	40.1219	73.7665	55.0394	29.5016	
1	0.00833333	54.0637	33.7973	37.6494	40.7411	18.4362	23.4285	33.037	9.98441	-1.72778	25.6844	-0.0601784	-16.3887	54.5181	36.7795	-25.6843	47.5263	24.7925	-48.9881	46.322	8.60217	-66.742	74.7021	36.5466	-32.6419	71.0274	22.7827	-59.5622	72.2066	5.91751	-79.2184	92.9818	31.5311	-31.6627	98.6602	21.1019	-48.8249	92.5184	6.79716	-69.2798	112.868	27.5774	-17.4001	118.314	20.1623	-36.8024	118.178	13.173	-54.7303	98.0901	48.3553	14.0919	100.332	54.8598	40.3368	73.0892	56.2867	26.8969	
2	0.0166667	53.4613	33.0387	42.6566	41.2546	17.1298	20.865	31.5886	7.9721	-0.555167	28.2906	-0.331037	-17.3461	55.0339	35.4482	-26.4343	47.274	25.0807	-45.738	47.0994	9.20305	-64.3881	74.5519	33.6654	-37.6996	71.063	21.5639	-59.2532	72.6119	2.79495	-79.7508	96.2094	29.8213	-30.4296	94.8599	19.8985	-48.4096	93.7545	5.20266	-67.6754	113.234	27.0534	-19.1124	117.918	18.453	-34.0167	118.728	13.1646	-51.0081	99.0586	47.4572	12.583	103.189	54.5939	36.8084	75.5379	56.0192	27.6152	
3	0.025	52.3115	31.8203	38.8703	39.0009	15.0716	23.047	32.2656	5.96495	-2.1714	26.3826	-4.62083	-18.1831	53.3872	34.3863	-25.4396	47.4449	20.047	-49.718	48.3674	5.41076	-66.0395	79.0708	32.0735	-36.7691	75.2054	18.0423	-60.7932	75.3834	0.668686	-78.353	94.8304	28.3371	-32.9469	96.0249	16.1326	-52.8404	92.5625	2.71697	-68.5202	113.247	25.011	-18.4937	116.609	17.1236	-32.8501	120.15	8.68968	-54.7086	96.6565	47.8341	11.7668	102.276	51.5414	38.9846	71.6871	53.5843	23.6726	
4	0.0333333	51.2523	33.2182	36.6925	40.1499	15.9225	21.2766	31.861	6.16043	-1.12514	27.654	-4.80066	-19.1711	55.0708	33.7646	-30.2059	47.9084	22.5974	-48.4103	49.133	5.28622	-65.5679	75.2506	34.2724	-34.1699	73.5027	18.2567	-61.0263	72.8328	2.99275	-78.2557	94.9405	28.9177	-28.5696	93.4554	16.1298	-53.7123	92.9577	2.73877	-70.9323	114.974	24.6282	-16.4277	117.608	15.8089	-38.0656	120.039	6.90899	-54.9007	98.0913	47.6376	14.1416	105.478	53.7779	37.5195	77.8778	54.1829	25.8821	
5	0.0416667	52.0775	33.1635	35.1659	42.0119	16.6379	20.0904	34.1747	6.69713	2.44337	28.4734	-3.35859	-16.28	52.2183	34.6479	-28.6005	51.7439	21.6412	-50.8721	42.555	4.8278	-67.9081	77.5543	34.7738	-35.1193	76.0496	21.8741	-59.4208	72.1032	5.29898	-77.6041	93.5368	29.5772	-32.7618	96.5287	18.7401	-52.0847	90.6461	5.40559	-67.723	116.148	24.3145	-20.7662	115.278	17.9281	-35.8048	120.893	7.46224	-57.2037	101.997	46.8532	10.4556	102.495	52.9178	34.6702	77.1317	54.3684	21.6442	
6	0.05	54.6268	33.6621	36.1497	38.3924	17.5953	21.669	29.4762	7.26583	-0.258936	25.434	-3.67611	-16.4139	53.1361	37.0739	-28.6003	46.0103	24.5165	-50.4559	47.5783	8.4822	-67.3902	74.3015	38.0879	-35.9459	73.1522	25.1741	-59.2308	72.0304	7.05333	-79.0876	97.2852	32.4218	-32.9392	96.8195	20.6479	-52.4438	93.0289	6.42013	-67.9291	113.222	27.9078	-18.6493	118.231	16.6509	-37.8183	118.179	5.60465	-57.166	98.6177	50.777	13.9131	100.292	54.5776	37.7956	74.688	55.4835	23.4216	
7	0.0583333	54.1585	34.3521	40.9812	39.5438	18.2614	21.0762	32.2093	8.47903	0.0837804	27.9918	-1.81301	-19.6798	50.7043	41.4709	-28.0022	48.453	27.683	-51.6643	44.1677	12.1533	-69.558	75.8746	40.7497	-36.9676	72.726	28.9194	-60.3675	73.7795	8.963	-82.5016	97.1082	34.5338	-33.193	96.1389	21.3847	-53.3896	87.7153	6.53547	-66.0221	113.346	31.2106	-17.7395	114.352	20.6798	-36.1204	114.361	4.01796	-54.3503	97.46	53.9713	10.3597	101.414	57.0949	40.336	72.8452	58.3679	27.7828	
8	0.0666667	56.757	36.4345	35.7735	41.15	18.7957	20.5052	37.0416	9.99887	0.315441	33.6957	-1.46816	-19.8503	52.7248	45.968	-28.2409	46.7094	36.8338	-50.296	45.0133	23.9935	-67.0013	76.913	47.1664	-34.9779	73.4269	34.6623	-62.1352	71.6022	21.2568	-78.6441	93.8505	40.2532	-28.9609	91.7617	24.5791	-49.8687	85.1292	-0.153426	-60.6862	113.966	33.4892	-19.7135	109.697	19.0034	-37.5846	107.272	-0.76116	-45.2964	102.424	56.6955	12.3343	104.729	58.4247	37.9044	77.0104	59.8887	29.2399	
9	0.075	55.1358	38.7833	40.3124	42.7339	19.0936	17.9545	39.8317	10.2739	-2.56795	42.6092	-0.387672	-25.4727	54.9365	51.8603	-27.9338	45.3489	44.7761	-46.2742	42.4656	31.1391	-69.4725	73.5267	52.5499	-36.7679	72.4887	41.3362	-62.048	69.4633	28.5851	-80.4453	94.4556	41.9381	-29.3578	88.6991	23.3645	-47.864	80.2342	-2.45372	-47.7082	114.406	33.5056	-20.7017	106.031	16.4141	-35.601	92.5756	-3.27494	-34.8299	98.3909	56.8451	15.7079	105.141	59.288	37.1719	79.8398	64.1079	30.1094	
10	0.0833333	57.9444	40.4711	36.0024	43.3172	19.0279	13.0325	44.4395	7.54633	-8.1214	56.6224	-0.504545	-28.4867	53.6458	56.0338	-23.6163	44.4695	48.9976	-49.6793	44.8409	41.5814	-68.5989	76.4656	53.7126	-36.0853	75.6604	46.2434	-59.3449	71.3943	31.1496	-80.9306	94.3482	39.2975	-33.0387	87.0816	17.5545	-44.2269	78.1133	-4.98448	-31.3315	112.586	30.8286	-20.8685	100.383	12.1214	-30.1946	84.8222	-5.23385	-14.9973	99.7232	58.5242	16.9616	105.254	61.67	41.2921	79.4555	63.2308	30.5409	
11	0.0916667	57.2091	39.4054	39.3458	49.2527	20.4134	13.9848	51.9357	8.06605	-12.7394	66.3021	-1.23873	-30.8111	51.9624	57.4208	-25.8243	47.1144	53.1037	-49.2907	41.7268	47.0798	-70.7004	75.1481	55.4974	-32.8827	74.6684	47.6028	-60.7769	69.0788	35.5256	-82.3196	93.0312	36.7891	-32.0096	86.0652	11.8739	-37.4429	76.1182	-3.03583	-13.9352	105.051	27.5235	-22.0921	95.0968	5.00987	-21.3021	84.8743	-1.25077	0.324015	101.806	58.8131	11.0854	104.88	60.5798	39.6087	75.6166	64.6269	26.8363	
